<mxfile host="65bd71144e" modified="2020-12-31T00:00:06.343Z" agent="5.0 (Windows NT 10.0; Win64; x64) AppleWebKit/537.36 (KHTML, like Gecko) Code/1.52.1 Chrome/83.0.4103.122 Electron/9.3.5 Safari/537.36" etag="dSI7PiQK-l_ads8fwj_5" version="13.10.0" type="embed" pages="3">
    <diagram id="M8fQZ1Fo5XgVi32tmQeU" name="DFD">
        <mxGraphModel dx="1468" dy="874" grid="1" gridSize="10" guides="1" tooltips="1" connect="1" arrows="1" fold="1" page="1" pageScale="1" pageWidth="827" pageHeight="1169" math="0" shadow="0">
            <root>
                <mxCell id="bVHdNsz0KWSQvc3xRIcT-0"/>
                <mxCell id="bVHdNsz0KWSQvc3xRIcT-1" parent="bVHdNsz0KWSQvc3xRIcT-0"/>
                <mxCell id="qWqSGmzBE8zTB4JTfCS3-11" value="Payment Partner Network" style="html=1;fontColor=#FF3333;fontStyle=1;align=left;verticalAlign=top;spacing=0;labelBorderColor=none;fillColor=none;dashed=1;strokeWidth=2;strokeColor=#FF3333;spacingLeft=4;spacingTop=-3;" vertex="1" parent="bVHdNsz0KWSQvc3xRIcT-1">
                    <mxGeometry x="117.5" y="110" width="242.5" height="105" as="geometry"/>
                </mxCell>
                <mxCell id="bVHdNsz0KWSQvc3xRIcT-3" value="User's Machine" style="html=1;fontColor=#FF3333;fontStyle=1;align=left;verticalAlign=top;spacing=0;labelBorderColor=none;fillColor=none;dashed=1;strokeWidth=2;strokeColor=#FF3333;spacingLeft=4;spacingTop=-3;" parent="bVHdNsz0KWSQvc3xRIcT-1" vertex="1">
                    <mxGeometry x="162.5" y="260" width="175" height="140" as="geometry"/>
                </mxCell>
                <mxCell id="bVHdNsz0KWSQvc3xRIcT-4" value="User's Network" style="html=1;fontColor=#FF3333;fontStyle=1;align=left;verticalAlign=top;spacing=0;labelBorderColor=none;fillColor=none;dashed=1;strokeWidth=2;strokeColor=#FF3333;spacingLeft=4;spacingTop=-3;" parent="bVHdNsz0KWSQvc3xRIcT-1" vertex="1">
                    <mxGeometry x="117.5" y="225" width="270" height="215" as="geometry"/>
                </mxCell>
                <mxCell id="bVHdNsz0KWSQvc3xRIcT-5" value="Internet" style="html=1;fontColor=#FF3333;fontStyle=1;align=left;verticalAlign=top;spacing=0;labelBorderColor=none;fillColor=none;dashed=1;strokeWidth=2;strokeColor=#FF3333;spacingLeft=4;spacingTop=-3;" parent="bVHdNsz0KWSQvc3xRIcT-1" vertex="1">
                    <mxGeometry x="73" y="80" width="360" height="420" as="geometry"/>
                </mxCell>
                <mxCell id="bVHdNsz0KWSQvc3xRIcT-2" value="User" style="rounded=0;whiteSpace=wrap;html=1;" parent="bVHdNsz0KWSQvc3xRIcT-1" vertex="1">
                    <mxGeometry x="187.5" y="320" width="120" height="60" as="geometry"/>
                </mxCell>
                <mxCell id="bVHdNsz0KWSQvc3xRIcT-6" value="Data Center (Protected)" style="html=1;fontColor=#FF3333;fontStyle=1;align=left;verticalAlign=top;spacing=0;labelBorderColor=none;fillColor=none;dashed=1;strokeWidth=2;strokeColor=#FF3333;spacingLeft=4;spacingTop=-3;" parent="bVHdNsz0KWSQvc3xRIcT-1" vertex="1">
                    <mxGeometry x="450" y="80" width="630" height="420" as="geometry"/>
                </mxCell>
                <mxCell id="bVHdNsz0KWSQvc3xRIcT-7" value="Website" style="ellipse;whiteSpace=wrap;html=1;aspect=fixed;" parent="bVHdNsz0KWSQvc3xRIcT-1" vertex="1">
                    <mxGeometry x="480" y="400" width="80" height="80" as="geometry"/>
                </mxCell>
                <mxCell id="bVHdNsz0KWSQvc3xRIcT-8" value="Order Processor" style="ellipse;whiteSpace=wrap;html=1;aspect=fixed;" parent="bVHdNsz0KWSQvc3xRIcT-1" vertex="1">
                    <mxGeometry x="600" y="400" width="80" height="80" as="geometry"/>
                </mxCell>
                <mxCell id="bVHdNsz0KWSQvc3xRIcT-10" value="Data Access" style="ellipse;whiteSpace=wrap;html=1;aspect=fixed;" parent="bVHdNsz0KWSQvc3xRIcT-1" vertex="1">
                    <mxGeometry x="720" y="400" width="80" height="80" as="geometry"/>
                </mxCell>
                <mxCell id="bVHdNsz0KWSQvc3xRIcT-11" value="Data Logger" style="ellipse;whiteSpace=wrap;html=1;aspect=fixed;" parent="bVHdNsz0KWSQvc3xRIcT-1" vertex="1">
                    <mxGeometry x="720" y="292.5" width="80" height="80" as="geometry"/>
                </mxCell>
                <mxCell id="bVHdNsz0KWSQvc3xRIcT-12" value="Data Center (Restricted)" style="html=1;fontColor=#FF3333;fontStyle=1;align=left;verticalAlign=top;spacing=0;labelBorderColor=none;fillColor=none;dashed=1;strokeWidth=2;strokeColor=#FF3333;spacingLeft=4;spacingTop=-3;" parent="bVHdNsz0KWSQvc3xRIcT-1" vertex="1">
                    <mxGeometry x="827" y="85" width="243" height="405" as="geometry"/>
                </mxCell>
                <mxCell id="bVHdNsz0KWSQvc3xRIcT-13" value="Orders" style="shape=partialRectangle;whiteSpace=wrap;html=1;left=0;right=0;fillColor=none;" parent="bVHdNsz0KWSQvc3xRIcT-1" vertex="1">
                    <mxGeometry x="920" y="425" width="120" height="30" as="geometry"/>
                </mxCell>
                <mxCell id="bVHdNsz0KWSQvc3xRIcT-14" value="Inventory" style="shape=partialRectangle;whiteSpace=wrap;html=1;left=0;right=0;fillColor=none;" parent="bVHdNsz0KWSQvc3xRIcT-1" vertex="1">
                    <mxGeometry x="920" y="360" width="120" height="30" as="geometry"/>
                </mxCell>
                <mxCell id="bVHdNsz0KWSQvc3xRIcT-15" value="Audit Log" style="shape=partialRectangle;whiteSpace=wrap;html=1;left=0;right=0;fillColor=none;" parent="bVHdNsz0KWSQvc3xRIcT-1" vertex="1">
                    <mxGeometry x="920" y="295" width="120" height="30" as="geometry"/>
                </mxCell>
                <mxCell id="bVHdNsz0KWSQvc3xRIcT-16" value="Payments API" style="ellipse;whiteSpace=wrap;html=1;aspect=fixed;" parent="bVHdNsz0KWSQvc3xRIcT-1" vertex="1">
                    <mxGeometry x="480" y="120" width="80" height="80" as="geometry"/>
                </mxCell>
                <mxCell id="bVHdNsz0KWSQvc3xRIcT-17" value="Payment Partner" style="rounded=0;whiteSpace=wrap;html=1;" parent="bVHdNsz0KWSQvc3xRIcT-1" vertex="1">
                    <mxGeometry x="165" y="130" width="120" height="60" as="geometry"/>
                </mxCell>
                <mxCell id="bVHdNsz0KWSQvc3xRIcT-18" value="&lt;font color=&quot;#000000&quot;&gt;HTTPS&lt;/font&gt;" style="endArrow=classic;startArrow=classic;html=1;fontColor=#FF3333;edgeStyle=orthogonalEdgeStyle;elbow=vertical;curved=1;" parent="bVHdNsz0KWSQvc3xRIcT-1" source="bVHdNsz0KWSQvc3xRIcT-16" target="bVHdNsz0KWSQvc3xRIcT-17" edge="1">
                    <mxGeometry width="50" height="50" relative="1" as="geometry">
                        <mxPoint x="120" y="610" as="sourcePoint"/>
                        <mxPoint x="170" y="560" as="targetPoint"/>
                    </mxGeometry>
                </mxCell>
                <mxCell id="bVHdNsz0KWSQvc3xRIcT-19" value="" style="endArrow=classic;startArrow=classic;html=1;fontColor=#FF3333;edgeStyle=orthogonalEdgeStyle;elbow=vertical;curved=1;" parent="bVHdNsz0KWSQvc3xRIcT-1" source="bVHdNsz0KWSQvc3xRIcT-2" target="bVHdNsz0KWSQvc3xRIcT-7" edge="1">
                    <mxGeometry width="50" height="50" relative="1" as="geometry">
                        <mxPoint x="370" y="560" as="sourcePoint"/>
                        <mxPoint x="120" y="490" as="targetPoint"/>
                    </mxGeometry>
                </mxCell>
                <mxCell id="bVHdNsz0KWSQvc3xRIcT-37" value="HTTPS" style="text;html=1;resizable=0;points=[];align=center;verticalAlign=middle;labelBackgroundColor=#ffffff;" parent="bVHdNsz0KWSQvc3xRIcT-19" vertex="1" connectable="0">
                    <mxGeometry x="-0.1886" y="-2" relative="1" as="geometry">
                        <mxPoint x="1" as="offset"/>
                    </mxGeometry>
                </mxCell>
                <mxCell id="bVHdNsz0KWSQvc3xRIcT-20" value="" style="endArrow=classic;startArrow=classic;html=1;edgeStyle=orthogonalEdgeStyle;elbow=vertical;curved=1;" parent="bVHdNsz0KWSQvc3xRIcT-1" source="bVHdNsz0KWSQvc3xRIcT-7" target="bVHdNsz0KWSQvc3xRIcT-8" edge="1">
                    <mxGeometry width="50" height="50" relative="1" as="geometry">
                        <mxPoint x="70" y="540" as="sourcePoint"/>
                        <mxPoint x="120" y="490" as="targetPoint"/>
                    </mxGeometry>
                </mxCell>
                <mxCell id="bVHdNsz0KWSQvc3xRIcT-21" value="" style="endArrow=classic;startArrow=classic;html=1;edgeStyle=orthogonalEdgeStyle;elbow=vertical;curved=1;" parent="bVHdNsz0KWSQvc3xRIcT-1" source="bVHdNsz0KWSQvc3xRIcT-8" target="bVHdNsz0KWSQvc3xRIcT-10" edge="1">
                    <mxGeometry width="50" height="50" relative="1" as="geometry">
                        <mxPoint x="70" y="540" as="sourcePoint"/>
                        <mxPoint x="120" y="490" as="targetPoint"/>
                    </mxGeometry>
                </mxCell>
                <mxCell id="bVHdNsz0KWSQvc3xRIcT-22" value="" style="endArrow=classic;startArrow=classic;html=1;fontColor=#FF3333;edgeStyle=orthogonalEdgeStyle;elbow=vertical;curved=1;exitX=0;exitY=0;exitDx=0;exitDy=0;" parent="bVHdNsz0KWSQvc3xRIcT-1" source="bVHdNsz0KWSQvc3xRIcT-8" target="bVHdNsz0KWSQvc3xRIcT-16" edge="1">
                    <mxGeometry width="50" height="50" relative="1" as="geometry">
                        <mxPoint x="70" y="540" as="sourcePoint"/>
                        <mxPoint x="120" y="490" as="targetPoint"/>
                        <Array as="points">
                            <mxPoint x="612" y="360"/>
                            <mxPoint x="520" y="360"/>
                        </Array>
                    </mxGeometry>
                </mxCell>
                <mxCell id="bVHdNsz0KWSQvc3xRIcT-23" value="" style="endArrow=classic;startArrow=classic;html=1;fontColor=#FF3333;edgeStyle=orthogonalEdgeStyle;elbow=vertical;curved=1;exitX=1;exitY=0;exitDx=0;exitDy=0;" parent="bVHdNsz0KWSQvc3xRIcT-1" source="bVHdNsz0KWSQvc3xRIcT-8" target="bVHdNsz0KWSQvc3xRIcT-11" edge="1">
                    <mxGeometry width="50" height="50" relative="1" as="geometry">
                        <mxPoint x="70" y="540" as="sourcePoint"/>
                        <mxPoint x="120" y="490" as="targetPoint"/>
                        <Array as="points">
                            <mxPoint x="690" y="412"/>
                            <mxPoint x="690" y="333"/>
                        </Array>
                    </mxGeometry>
                </mxCell>
                <mxCell id="bVHdNsz0KWSQvc3xRIcT-24" value="" style="endArrow=classic;html=1;fontColor=#FF3333;edgeStyle=orthogonalEdgeStyle;elbow=vertical;curved=1;" parent="bVHdNsz0KWSQvc3xRIcT-1" source="bVHdNsz0KWSQvc3xRIcT-11" target="bVHdNsz0KWSQvc3xRIcT-15" edge="1">
                    <mxGeometry width="50" height="50" relative="1" as="geometry">
                        <mxPoint x="70" y="540" as="sourcePoint"/>
                        <mxPoint x="120" y="490" as="targetPoint"/>
                    </mxGeometry>
                </mxCell>
                <mxCell id="bVHdNsz0KWSQvc3xRIcT-25" value="" style="endArrow=classic;startArrow=classic;html=1;fontColor=#FF3333;edgeStyle=orthogonalEdgeStyle;elbow=vertical;curved=1;entryX=0;entryY=0.5;entryDx=0;entryDy=0;" parent="bVHdNsz0KWSQvc3xRIcT-1" source="bVHdNsz0KWSQvc3xRIcT-10" target="bVHdNsz0KWSQvc3xRIcT-14" edge="1">
                    <mxGeometry width="50" height="50" relative="1" as="geometry">
                        <mxPoint x="70" y="540" as="sourcePoint"/>
                        <mxPoint x="120" y="490" as="targetPoint"/>
                    </mxGeometry>
                </mxCell>
                <mxCell id="bVHdNsz0KWSQvc3xRIcT-27" value="Users API" style="ellipse;whiteSpace=wrap;html=1;aspect=fixed;" parent="bVHdNsz0KWSQvc3xRIcT-1" vertex="1">
                    <mxGeometry x="600" y="215" width="80" height="80" as="geometry"/>
                </mxCell>
                <mxCell id="bVHdNsz0KWSQvc3xRIcT-28" value="" style="endArrow=classic;startArrow=classic;html=1;fontColor=#FF3333;edgeStyle=orthogonalEdgeStyle;elbow=vertical;curved=1;exitX=0.5;exitY=1;exitDx=0;exitDy=0;entryX=0.5;entryY=0;entryDx=0;entryDy=0;" parent="bVHdNsz0KWSQvc3xRIcT-1" source="bVHdNsz0KWSQvc3xRIcT-27" target="bVHdNsz0KWSQvc3xRIcT-8" edge="1">
                    <mxGeometry width="50" height="50" relative="1" as="geometry">
                        <mxPoint x="70" y="570" as="sourcePoint"/>
                        <mxPoint x="120" y="520" as="targetPoint"/>
                        <Array as="points"/>
                    </mxGeometry>
                </mxCell>
                <mxCell id="bVHdNsz0KWSQvc3xRIcT-29" value="Users" style="shape=partialRectangle;whiteSpace=wrap;html=1;left=0;right=0;fillColor=none;" parent="bVHdNsz0KWSQvc3xRIcT-1" vertex="1">
                    <mxGeometry x="920" y="230" width="120" height="30" as="geometry"/>
                </mxCell>
                <mxCell id="bVHdNsz0KWSQvc3xRIcT-30" value="" style="endArrow=classic;startArrow=classic;html=1;fontColor=#FF3333;edgeStyle=orthogonalEdgeStyle;elbow=vertical;curved=1;exitX=1;exitY=0;exitDx=0;exitDy=0;" parent="bVHdNsz0KWSQvc3xRIcT-1" source="bVHdNsz0KWSQvc3xRIcT-27" target="bVHdNsz0KWSQvc3xRIcT-29" edge="1">
                    <mxGeometry width="50" height="50" relative="1" as="geometry">
                        <mxPoint x="70" y="570" as="sourcePoint"/>
                        <mxPoint x="120" y="520" as="targetPoint"/>
                        <Array as="points"/>
                    </mxGeometry>
                </mxCell>
                <mxCell id="bVHdNsz0KWSQvc3xRIcT-31" value="" style="endArrow=classic;startArrow=classic;html=1;fontColor=#FF3333;edgeStyle=orthogonalEdgeStyle;elbow=vertical;curved=1;" parent="bVHdNsz0KWSQvc3xRIcT-1" source="bVHdNsz0KWSQvc3xRIcT-10" target="bVHdNsz0KWSQvc3xRIcT-13" edge="1">
                    <mxGeometry width="50" height="50" relative="1" as="geometry">
                        <mxPoint x="70" y="570" as="sourcePoint"/>
                        <mxPoint x="120" y="520" as="targetPoint"/>
                    </mxGeometry>
                </mxCell>
                <mxCell id="bVHdNsz0KWSQvc3xRIcT-32" value="Payments" style="shape=partialRectangle;whiteSpace=wrap;html=1;left=0;right=0;fillColor=none;" parent="bVHdNsz0KWSQvc3xRIcT-1" vertex="1">
                    <mxGeometry x="920" y="145" width="120" height="30" as="geometry"/>
                </mxCell>
                <mxCell id="bVHdNsz0KWSQvc3xRIcT-33" value="" style="endArrow=classic;startArrow=classic;html=1;fontColor=#FF3333;edgeStyle=orthogonalEdgeStyle;elbow=vertical;curved=1;" parent="bVHdNsz0KWSQvc3xRIcT-1" source="bVHdNsz0KWSQvc3xRIcT-16" target="bVHdNsz0KWSQvc3xRIcT-32" edge="1">
                    <mxGeometry width="50" height="50" relative="1" as="geometry">
                        <mxPoint x="70" y="570" as="sourcePoint"/>
                        <mxPoint x="120" y="520" as="targetPoint"/>
                    </mxGeometry>
                </mxCell>
                <mxCell id="bVHdNsz0KWSQvc3xRIcT-34" value="" style="endArrow=classic;html=1;fontColor=#FF3333;edgeStyle=orthogonalEdgeStyle;elbow=vertical;curved=1;exitX=1;exitY=0.5;exitDx=0;exitDy=0;entryX=0;entryY=0.5;entryDx=0;entryDy=0;" parent="bVHdNsz0KWSQvc3xRIcT-1" source="bVHdNsz0KWSQvc3xRIcT-27" target="bVHdNsz0KWSQvc3xRIcT-15" edge="1">
                    <mxGeometry width="50" height="50" relative="1" as="geometry">
                        <mxPoint x="70" y="570" as="sourcePoint"/>
                        <mxPoint x="910" y="310" as="targetPoint"/>
                        <Array as="points">
                            <mxPoint x="680" y="260"/>
                            <mxPoint x="790" y="260"/>
                            <mxPoint x="790" y="310"/>
                        </Array>
                    </mxGeometry>
                </mxCell>
                <mxCell id="bVHdNsz0KWSQvc3xRIcT-35" value="" style="endArrow=classic;html=1;fontColor=#FF3333;edgeStyle=orthogonalEdgeStyle;elbow=vertical;curved=1;exitX=0.938;exitY=0.75;exitDx=0;exitDy=0;entryX=0;entryY=0.5;entryDx=0;entryDy=0;exitPerimeter=0;" parent="bVHdNsz0KWSQvc3xRIcT-1" source="bVHdNsz0KWSQvc3xRIcT-16" target="bVHdNsz0KWSQvc3xRIcT-15" edge="1">
                    <mxGeometry width="50" height="50" relative="1" as="geometry">
                        <mxPoint x="70" y="570" as="sourcePoint"/>
                        <mxPoint x="120" y="520" as="targetPoint"/>
                        <Array as="points">
                            <mxPoint x="820" y="180"/>
                            <mxPoint x="820" y="310"/>
                        </Array>
                    </mxGeometry>
                </mxCell>
                <mxCell id="bVHdNsz0KWSQvc3xRIcT-42" value="Assets" style="swimlane;fontStyle=0;childLayout=stackLayout;horizontal=1;startSize=26;fillColor=#fff2cc;horizontalStack=0;resizeParent=1;resizeParentMax=0;resizeLast=0;collapsible=1;marginBottom=0;swimlaneFillColor=#ffffff;align=center;fontSize=14;shadow=1;strokeColor=#d6b656;" parent="bVHdNsz0KWSQvc3xRIcT-1" vertex="1">
                    <mxGeometry x="70" y="520" width="310" height="180" as="geometry"/>
                </mxCell>
                <mxCell id="bVHdNsz0KWSQvc3xRIcT-43" value="Description" style="shape=partialRectangle;top=0;left=0;right=0;bottom=1;align=left;verticalAlign=middle;fillColor=#fff2cc;spacingLeft=34;spacingRight=4;overflow=hidden;rotatable=0;points=[[0,0.5],[1,0.5]];portConstraint=eastwest;dropTarget=0;fontStyle=1;fontSize=12;strokeColor=#d6b656;" parent="bVHdNsz0KWSQvc3xRIcT-42" vertex="1">
                    <mxGeometry y="26" width="310" height="30" as="geometry"/>
                </mxCell>
                <mxCell id="bVHdNsz0KWSQvc3xRIcT-44" value="ID" style="shape=partialRectangle;top=0;left=0;bottom=0;fillColor=none;align=left;verticalAlign=middle;spacingLeft=4;spacingRight=4;overflow=hidden;rotatable=0;points=[];portConstraint=eastwest;part=1;fontSize=12;fontStyle=1" parent="bVHdNsz0KWSQvc3xRIcT-43" vertex="1" connectable="0">
                    <mxGeometry width="30" height="30" as="geometry"/>
                </mxCell>
                <mxCell id="bVHdNsz0KWSQvc3xRIcT-45" value="User Credentials" style="shape=partialRectangle;top=0;left=0;right=0;bottom=0;align=left;verticalAlign=top;fillColor=none;spacingLeft=34;spacingRight=4;overflow=hidden;rotatable=0;points=[[0,0.5],[1,0.5]];portConstraint=eastwest;dropTarget=0;fontSize=12;" parent="bVHdNsz0KWSQvc3xRIcT-42" vertex="1">
                    <mxGeometry y="56" width="310" height="26" as="geometry"/>
                </mxCell>
                <mxCell id="bVHdNsz0KWSQvc3xRIcT-46" value="A01" style="shape=partialRectangle;top=0;left=0;bottom=0;fillColor=none;align=left;verticalAlign=top;spacingLeft=4;spacingRight=4;overflow=hidden;rotatable=0;points=[];portConstraint=eastwest;part=1;fontSize=10;" parent="bVHdNsz0KWSQvc3xRIcT-45" vertex="1" connectable="0">
                    <mxGeometry width="30" height="26" as="geometry"/>
                </mxCell>
                <mxCell id="bVHdNsz0KWSQvc3xRIcT-47" value="Credit card data" style="shape=partialRectangle;top=0;left=0;right=0;bottom=0;align=left;verticalAlign=top;fillColor=none;spacingLeft=34;spacingRight=4;overflow=hidden;rotatable=0;points=[[0,0.5],[1,0.5]];portConstraint=eastwest;dropTarget=0;fontSize=12;" parent="bVHdNsz0KWSQvc3xRIcT-42" vertex="1">
                    <mxGeometry y="82" width="310" height="26" as="geometry"/>
                </mxCell>
                <mxCell id="bVHdNsz0KWSQvc3xRIcT-48" value="A02" style="shape=partialRectangle;top=0;left=0;bottom=0;fillColor=none;align=left;verticalAlign=top;spacingLeft=4;spacingRight=4;overflow=hidden;rotatable=0;points=[];portConstraint=eastwest;part=1;fontSize=10;" parent="bVHdNsz0KWSQvc3xRIcT-47" vertex="1" connectable="0">
                    <mxGeometry width="30" height="26" as="geometry"/>
                </mxCell>
                <mxCell id="qWqSGmzBE8zTB4JTfCS3-0" value="Inventory data" style="shape=partialRectangle;top=0;left=0;right=0;bottom=0;align=left;verticalAlign=top;fillColor=none;spacingLeft=34;spacingRight=4;overflow=hidden;rotatable=0;points=[[0,0.5],[1,0.5]];portConstraint=eastwest;dropTarget=0;fontSize=12;" vertex="1" parent="bVHdNsz0KWSQvc3xRIcT-42">
                    <mxGeometry y="108" width="310" height="26" as="geometry"/>
                </mxCell>
                <mxCell id="qWqSGmzBE8zTB4JTfCS3-1" value="A03" style="shape=partialRectangle;top=0;left=0;bottom=0;fillColor=none;align=left;verticalAlign=top;spacingLeft=4;spacingRight=4;overflow=hidden;rotatable=0;points=[];portConstraint=eastwest;part=1;fontSize=10;" vertex="1" connectable="0" parent="qWqSGmzBE8zTB4JTfCS3-0">
                    <mxGeometry width="30" height="26" as="geometry"/>
                </mxCell>
                <mxCell id="qWqSGmzBE8zTB4JTfCS3-4" value="Order data" style="shape=partialRectangle;top=0;left=0;right=0;bottom=0;align=left;verticalAlign=top;fillColor=none;spacingLeft=34;spacingRight=4;overflow=hidden;rotatable=0;points=[[0,0.5],[1,0.5]];portConstraint=eastwest;dropTarget=0;fontSize=12;" vertex="1" parent="bVHdNsz0KWSQvc3xRIcT-42">
                    <mxGeometry y="134" width="310" height="26" as="geometry"/>
                </mxCell>
                <mxCell id="qWqSGmzBE8zTB4JTfCS3-5" value="A04" style="shape=partialRectangle;top=0;left=0;bottom=0;fillColor=none;align=left;verticalAlign=top;spacingLeft=4;spacingRight=4;overflow=hidden;rotatable=0;points=[];portConstraint=eastwest;part=1;fontSize=10;" vertex="1" connectable="0" parent="qWqSGmzBE8zTB4JTfCS3-4">
                    <mxGeometry width="30" height="26" as="geometry"/>
                </mxCell>
                <mxCell id="bVHdNsz0KWSQvc3xRIcT-51" value="" style="shape=partialRectangle;top=0;left=0;right=0;bottom=0;align=left;verticalAlign=top;fillColor=none;spacingLeft=34;spacingRight=4;overflow=hidden;rotatable=0;points=[[0,0.5],[1,0.5]];portConstraint=eastwest;dropTarget=0;fontSize=12;" parent="bVHdNsz0KWSQvc3xRIcT-42" vertex="1">
                    <mxGeometry y="160" width="310" height="20" as="geometry"/>
                </mxCell>
                <mxCell id="bVHdNsz0KWSQvc3xRIcT-52" value="" style="shape=partialRectangle;top=0;left=0;bottom=0;fillColor=none;align=left;verticalAlign=top;spacingLeft=4;spacingRight=4;overflow=hidden;rotatable=0;points=[];portConstraint=eastwest;part=1;fontSize=12;" parent="bVHdNsz0KWSQvc3xRIcT-51" vertex="1" connectable="0">
                    <mxGeometry width="30" height="20" as="geometry"/>
                </mxCell>
                <mxCell id="bVHdNsz0KWSQvc3xRIcT-53" value="Security Controls" style="swimlane;fontStyle=1;childLayout=stackLayout;horizontal=1;startSize=26;fillColor=#d5e8d4;horizontalStack=0;resizeParent=1;resizeParentMax=0;resizeLast=0;collapsible=1;marginBottom=0;swimlaneFillColor=#ffffff;align=center;fontSize=14;shadow=1;strokeColor=#82b366;" parent="bVHdNsz0KWSQvc3xRIcT-1" vertex="1">
                    <mxGeometry x="394" y="520" width="312" height="144" as="geometry"/>
                </mxCell>
                <mxCell id="bVHdNsz0KWSQvc3xRIcT-54" value="Description" style="shape=partialRectangle;top=0;left=0;right=0;bottom=1;align=left;verticalAlign=middle;fillColor=#d5e8d4;spacingLeft=34;spacingRight=4;overflow=hidden;rotatable=0;points=[[0,0.5],[1,0.5]];portConstraint=eastwest;dropTarget=0;fontStyle=1;fontSize=12;strokeColor=#82b366;" parent="bVHdNsz0KWSQvc3xRIcT-53" vertex="1">
                    <mxGeometry y="26" width="312" height="30" as="geometry"/>
                </mxCell>
                <mxCell id="bVHdNsz0KWSQvc3xRIcT-55" value="ID" style="shape=partialRectangle;top=0;left=0;bottom=0;fillColor=none;align=left;verticalAlign=middle;spacingLeft=4;spacingRight=4;overflow=hidden;rotatable=0;points=[];portConstraint=eastwest;part=1;fontSize=12;fontStyle=1" parent="bVHdNsz0KWSQvc3xRIcT-54" vertex="1" connectable="0">
                    <mxGeometry width="30" height="30" as="geometry"/>
                </mxCell>
                <mxCell id="bVHdNsz0KWSQvc3xRIcT-56" value="Authentication" style="shape=partialRectangle;top=0;left=0;right=0;bottom=0;align=left;verticalAlign=top;fillColor=none;spacingLeft=34;spacingRight=4;overflow=hidden;rotatable=0;points=[[0,0.5],[1,0.5]];portConstraint=eastwest;dropTarget=0;fontSize=12;" parent="bVHdNsz0KWSQvc3xRIcT-53" vertex="1">
                    <mxGeometry y="56" width="312" height="26" as="geometry"/>
                </mxCell>
                <mxCell id="bVHdNsz0KWSQvc3xRIcT-57" value="C01" style="shape=partialRectangle;top=0;left=0;bottom=0;fillColor=none;align=left;verticalAlign=top;spacingLeft=4;spacingRight=4;overflow=hidden;rotatable=0;points=[];portConstraint=eastwest;part=1;fontSize=10;" parent="bVHdNsz0KWSQvc3xRIcT-56" vertex="1" connectable="0">
                    <mxGeometry width="30" height="26" as="geometry"/>
                </mxCell>
                <mxCell id="bVHdNsz0KWSQvc3xRIcT-58" value="Password hashing" style="shape=partialRectangle;top=0;left=0;right=0;bottom=0;align=left;verticalAlign=top;fillColor=none;spacingLeft=34;spacingRight=4;overflow=hidden;rotatable=0;points=[[0,0.5],[1,0.5]];portConstraint=eastwest;dropTarget=0;fontSize=12;" parent="bVHdNsz0KWSQvc3xRIcT-53" vertex="1">
                    <mxGeometry y="82" width="312" height="26" as="geometry"/>
                </mxCell>
                <mxCell id="bVHdNsz0KWSQvc3xRIcT-59" value="C02" style="shape=partialRectangle;top=0;left=0;bottom=0;fillColor=none;align=left;verticalAlign=top;spacingLeft=4;spacingRight=4;overflow=hidden;rotatable=0;points=[];portConstraint=eastwest;part=1;fontSize=10;" parent="bVHdNsz0KWSQvc3xRIcT-58" vertex="1" connectable="0">
                    <mxGeometry width="30" height="26" as="geometry"/>
                </mxCell>
                <mxCell id="bVHdNsz0KWSQvc3xRIcT-60" value="TLS" style="shape=partialRectangle;top=0;left=0;right=0;bottom=0;align=left;verticalAlign=top;fillColor=none;spacingLeft=34;spacingRight=4;overflow=hidden;rotatable=0;points=[[0,0.5],[1,0.5]];portConstraint=eastwest;dropTarget=0;fontSize=12;" parent="bVHdNsz0KWSQvc3xRIcT-53" vertex="1">
                    <mxGeometry y="108" width="312" height="26" as="geometry"/>
                </mxCell>
                <mxCell id="bVHdNsz0KWSQvc3xRIcT-61" value="C03" style="shape=partialRectangle;top=0;left=0;bottom=0;fillColor=none;align=left;verticalAlign=top;spacingLeft=4;spacingRight=4;overflow=hidden;rotatable=0;points=[];portConstraint=eastwest;part=1;fontSize=10;" parent="bVHdNsz0KWSQvc3xRIcT-60" vertex="1" connectable="0">
                    <mxGeometry width="30" height="26" as="geometry"/>
                </mxCell>
                <mxCell id="bVHdNsz0KWSQvc3xRIcT-62" value="" style="shape=partialRectangle;top=0;left=0;right=0;bottom=0;align=left;verticalAlign=top;fillColor=none;spacingLeft=34;spacingRight=4;overflow=hidden;rotatable=0;points=[[0,0.5],[1,0.5]];portConstraint=eastwest;dropTarget=0;fontSize=12;" parent="bVHdNsz0KWSQvc3xRIcT-53" vertex="1">
                    <mxGeometry y="134" width="312" height="10" as="geometry"/>
                </mxCell>
                <mxCell id="bVHdNsz0KWSQvc3xRIcT-63" value="" style="shape=partialRectangle;top=0;left=0;bottom=0;fillColor=none;align=left;verticalAlign=top;spacingLeft=4;spacingRight=4;overflow=hidden;rotatable=0;points=[];portConstraint=eastwest;part=1;fontSize=12;" parent="bVHdNsz0KWSQvc3xRIcT-62" vertex="1" connectable="0">
                    <mxGeometry width="30" height="10" as="geometry"/>
                </mxCell>
                <mxCell id="bVHdNsz0KWSQvc3xRIcT-64" value="Threat Actors" style="swimlane;fontStyle=1;childLayout=stackLayout;horizontal=1;startSize=26;fillColor=#f8cecc;horizontalStack=0;resizeParent=1;resizeParentMax=0;resizeLast=0;collapsible=1;marginBottom=0;swimlaneFillColor=#ffffff;align=center;fontSize=14;shadow=1;strokeColor=#b85450;" parent="bVHdNsz0KWSQvc3xRIcT-1" vertex="1">
                    <mxGeometry x="730" y="520" width="350" height="144" as="geometry"/>
                </mxCell>
                <mxCell id="bVHdNsz0KWSQvc3xRIcT-65" value="Description" style="shape=partialRectangle;top=0;left=0;right=0;bottom=1;align=left;verticalAlign=middle;fillColor=#f8cecc;spacingLeft=34;spacingRight=4;overflow=hidden;rotatable=0;points=[[0,0.5],[1,0.5]];portConstraint=eastwest;dropTarget=0;fontStyle=1;fontSize=12;strokeColor=#b85450;" parent="bVHdNsz0KWSQvc3xRIcT-64" vertex="1">
                    <mxGeometry y="26" width="350" height="30" as="geometry"/>
                </mxCell>
                <mxCell id="bVHdNsz0KWSQvc3xRIcT-66" value="ID" style="shape=partialRectangle;top=0;left=0;bottom=0;fillColor=none;align=left;verticalAlign=middle;spacingLeft=4;spacingRight=4;overflow=hidden;rotatable=0;points=[];portConstraint=eastwest;part=1;fontSize=12;fontStyle=1" parent="bVHdNsz0KWSQvc3xRIcT-65" vertex="1" connectable="0">
                    <mxGeometry width="30" height="30" as="geometry"/>
                </mxCell>
                <mxCell id="bVHdNsz0KWSQvc3xRIcT-67" value="Malicious user" style="shape=partialRectangle;top=0;left=0;right=0;bottom=0;align=left;verticalAlign=top;fillColor=none;spacingLeft=34;spacingRight=4;overflow=hidden;rotatable=0;points=[[0,0.5],[1,0.5]];portConstraint=eastwest;dropTarget=0;fontSize=12;" parent="bVHdNsz0KWSQvc3xRIcT-64" vertex="1">
                    <mxGeometry y="56" width="350" height="26" as="geometry"/>
                </mxCell>
                <mxCell id="bVHdNsz0KWSQvc3xRIcT-68" value="T01" style="shape=partialRectangle;top=0;left=0;bottom=0;fillColor=none;align=left;verticalAlign=top;spacingLeft=4;spacingRight=4;overflow=hidden;rotatable=0;points=[];portConstraint=eastwest;part=1;fontSize=10;" parent="bVHdNsz0KWSQvc3xRIcT-67" vertex="1" connectable="0">
                    <mxGeometry width="30" height="26" as="geometry"/>
                </mxCell>
                <mxCell id="bVHdNsz0KWSQvc3xRIcT-69" value="Man-in-the-middle" style="shape=partialRectangle;top=0;left=0;right=0;bottom=0;align=left;verticalAlign=top;fillColor=none;spacingLeft=34;spacingRight=4;overflow=hidden;rotatable=0;points=[[0,0.5],[1,0.5]];portConstraint=eastwest;dropTarget=0;fontSize=12;" parent="bVHdNsz0KWSQvc3xRIcT-64" vertex="1">
                    <mxGeometry y="82" width="350" height="26" as="geometry"/>
                </mxCell>
                <mxCell id="bVHdNsz0KWSQvc3xRIcT-70" value="T02" style="shape=partialRectangle;top=0;left=0;bottom=0;fillColor=none;align=left;verticalAlign=top;spacingLeft=4;spacingRight=4;overflow=hidden;rotatable=0;points=[];portConstraint=eastwest;part=1;fontSize=10;" parent="bVHdNsz0KWSQvc3xRIcT-69" vertex="1" connectable="0">
                    <mxGeometry width="30" height="26" as="geometry"/>
                </mxCell>
                <mxCell id="bVHdNsz0KWSQvc3xRIcT-71" value="Compromised payment partner" style="shape=partialRectangle;top=0;left=0;right=0;bottom=0;align=left;verticalAlign=top;fillColor=none;spacingLeft=34;spacingRight=4;overflow=hidden;rotatable=0;points=[[0,0.5],[1,0.5]];portConstraint=eastwest;dropTarget=0;fontSize=12;" parent="bVHdNsz0KWSQvc3xRIcT-64" vertex="1">
                    <mxGeometry y="108" width="350" height="26" as="geometry"/>
                </mxCell>
                <mxCell id="bVHdNsz0KWSQvc3xRIcT-72" value="T03" style="shape=partialRectangle;top=0;left=0;bottom=0;fillColor=none;align=left;verticalAlign=top;spacingLeft=4;spacingRight=4;overflow=hidden;rotatable=0;points=[];portConstraint=eastwest;part=1;fontSize=10;" parent="bVHdNsz0KWSQvc3xRIcT-71" vertex="1" connectable="0">
                    <mxGeometry width="30" height="26" as="geometry"/>
                </mxCell>
                <mxCell id="bVHdNsz0KWSQvc3xRIcT-73" value="" style="shape=partialRectangle;top=0;left=0;right=0;bottom=0;align=left;verticalAlign=top;fillColor=none;spacingLeft=34;spacingRight=4;overflow=hidden;rotatable=0;points=[[0,0.5],[1,0.5]];portConstraint=eastwest;dropTarget=0;fontSize=12;" parent="bVHdNsz0KWSQvc3xRIcT-64" vertex="1">
                    <mxGeometry y="134" width="350" height="10" as="geometry"/>
                </mxCell>
                <mxCell id="bVHdNsz0KWSQvc3xRIcT-74" value="" style="shape=partialRectangle;top=0;left=0;bottom=0;fillColor=none;align=left;verticalAlign=top;spacingLeft=4;spacingRight=4;overflow=hidden;rotatable=0;points=[];portConstraint=eastwest;part=1;fontSize=12;" parent="bVHdNsz0KWSQvc3xRIcT-73" vertex="1" connectable="0">
                    <mxGeometry width="30" height="10" as="geometry"/>
                </mxCell>
                <UserObject label="&lt;b&gt;T03&lt;/b&gt;" placeholders="1" name="Variable" id="bVHdNsz0KWSQvc3xRIcT-77">
                    <mxCell style="text;html=1;strokeColor=#b85450;fillColor=#f8cecc;align=center;verticalAlign=middle;whiteSpace=wrap;overflow=hidden;shadow=1;fontSize=10;" parent="bVHdNsz0KWSQvc3xRIcT-1" vertex="1">
                        <mxGeometry x="320" y="109" width="40" height="20" as="geometry"/>
                    </mxCell>
                </UserObject>
                <UserObject label="&lt;b&gt;T02&lt;/b&gt;" placeholders="1" name="Variable" id="bVHdNsz0KWSQvc3xRIcT-78">
                    <mxCell style="text;html=1;strokeColor=#b85450;fillColor=#f8cecc;align=center;verticalAlign=middle;whiteSpace=wrap;overflow=hidden;shadow=1;fontSize=10;" parent="bVHdNsz0KWSQvc3xRIcT-1" vertex="1">
                        <mxGeometry x="347.5" y="225" width="40" height="20" as="geometry"/>
                    </mxCell>
                </UserObject>
                <UserObject label="&lt;b&gt;T01&lt;/b&gt;" placeholders="1" name="Variable" id="bVHdNsz0KWSQvc3xRIcT-79">
                    <mxCell style="text;html=1;strokeColor=#b85450;fillColor=#f8cecc;align=center;verticalAlign=middle;whiteSpace=wrap;overflow=hidden;shadow=1;fontSize=10;" parent="bVHdNsz0KWSQvc3xRIcT-1" vertex="1">
                        <mxGeometry x="267.5" y="320" width="40" height="20" as="geometry"/>
                    </mxCell>
                </UserObject>
                <UserObject label="&lt;b&gt;C03&lt;/b&gt;" placeholders="1" name="Variable" id="bVHdNsz0KWSQvc3xRIcT-80">
                    <mxCell style="text;html=1;strokeColor=#82b366;fillColor=#d5e8d4;align=center;verticalAlign=middle;whiteSpace=wrap;overflow=hidden;shadow=1;fontSize=10;" parent="bVHdNsz0KWSQvc3xRIcT-1" vertex="1">
                        <mxGeometry x="445" y="350" width="30" height="20" as="geometry"/>
                    </mxCell>
                </UserObject>
                <UserObject label="&lt;b&gt;C01&lt;/b&gt;" placeholders="1" name="Variable" id="bVHdNsz0KWSQvc3xRIcT-81">
                    <mxCell style="text;html=1;strokeColor=#82b366;fillColor=#d5e8d4;align=center;verticalAlign=middle;whiteSpace=wrap;overflow=hidden;shadow=1;fontSize=10;" parent="bVHdNsz0KWSQvc3xRIcT-1" vertex="1">
                        <mxGeometry x="479" y="400" width="30" height="20" as="geometry"/>
                    </mxCell>
                </UserObject>
                <UserObject label="&lt;b&gt;A01&lt;/b&gt;" placeholders="1" name="Variable" id="bVHdNsz0KWSQvc3xRIcT-82">
                    <mxCell style="text;html=1;strokeColor=#d6b656;fillColor=#fff2cc;align=center;verticalAlign=middle;whiteSpace=wrap;overflow=hidden;shadow=1;fontSize=10;" parent="bVHdNsz0KWSQvc3xRIcT-1" vertex="1">
                        <mxGeometry x="454" y="430" width="40" height="20" as="geometry"/>
                    </mxCell>
                </UserObject>
                <UserObject label="&lt;b&gt;A02&lt;/b&gt;" placeholders="1" name="Variable" id="bVHdNsz0KWSQvc3xRIcT-83">
                    <mxCell style="text;html=1;strokeColor=#d6b656;fillColor=#fff2cc;align=center;verticalAlign=middle;whiteSpace=wrap;overflow=hidden;shadow=1;fontSize=10;" parent="bVHdNsz0KWSQvc3xRIcT-1" vertex="1">
                        <mxGeometry x="460" y="447" width="40" height="20" as="geometry"/>
                    </mxCell>
                </UserObject>
                <UserObject label="&lt;b&gt;A01&lt;/b&gt;" placeholders="1" name="Variable" id="bVHdNsz0KWSQvc3xRIcT-84">
                    <mxCell style="text;html=1;strokeColor=#d6b656;fillColor=#fff2cc;align=center;verticalAlign=middle;whiteSpace=wrap;overflow=hidden;shadow=1;fontSize=10;" parent="bVHdNsz0KWSQvc3xRIcT-1" vertex="1">
                        <mxGeometry x="587.5" y="225" width="40" height="20" as="geometry"/>
                    </mxCell>
                </UserObject>
                <UserObject label="&lt;b&gt;A01&lt;/b&gt;" placeholders="1" name="Variable" id="bVHdNsz0KWSQvc3xRIcT-85">
                    <mxCell style="text;html=1;strokeColor=#d6b656;fillColor=#fff2cc;align=center;verticalAlign=middle;whiteSpace=wrap;overflow=hidden;shadow=1;fontSize=10;" parent="bVHdNsz0KWSQvc3xRIcT-1" vertex="1">
                        <mxGeometry x="1010" y="220" width="40" height="20" as="geometry"/>
                    </mxCell>
                </UserObject>
                <UserObject label="&lt;b&gt;A02&lt;/b&gt;" placeholders="1" name="Variable" id="bVHdNsz0KWSQvc3xRIcT-86">
                    <mxCell style="text;html=1;strokeColor=#d6b656;fillColor=#fff2cc;align=center;verticalAlign=middle;whiteSpace=wrap;overflow=hidden;shadow=1;fontSize=10;" parent="bVHdNsz0KWSQvc3xRIcT-1" vertex="1">
                        <mxGeometry x="530" y="120" width="40" height="20" as="geometry"/>
                    </mxCell>
                </UserObject>
                <UserObject label="&lt;b&gt;A02&lt;/b&gt;" placeholders="1" name="Variable" id="bVHdNsz0KWSQvc3xRIcT-87">
                    <mxCell style="text;html=1;strokeColor=#d6b656;fillColor=#fff2cc;align=center;verticalAlign=middle;whiteSpace=wrap;overflow=hidden;shadow=1;fontSize=10;" parent="bVHdNsz0KWSQvc3xRIcT-1" vertex="1">
                        <mxGeometry x="580" y="455" width="40" height="20" as="geometry"/>
                    </mxCell>
                </UserObject>
                <UserObject label="&lt;b&gt;A01&lt;/b&gt;" placeholders="1" name="Variable" id="bVHdNsz0KWSQvc3xRIcT-88">
                    <mxCell style="text;html=1;strokeColor=#d6b656;fillColor=#fff2cc;align=center;verticalAlign=middle;whiteSpace=wrap;overflow=hidden;shadow=1;fontSize=10;" parent="bVHdNsz0KWSQvc3xRIcT-1" vertex="1">
                        <mxGeometry x="621.5" y="467" width="40" height="20" as="geometry"/>
                    </mxCell>
                </UserObject>
                <UserObject label="&lt;b&gt;C02&lt;/b&gt;" placeholders="1" name="Variable" id="bVHdNsz0KWSQvc3xRIcT-89">
                    <mxCell style="text;html=1;strokeColor=#82b366;fillColor=#d5e8d4;align=center;verticalAlign=middle;whiteSpace=wrap;overflow=hidden;shadow=1;fontSize=10;" parent="bVHdNsz0KWSQvc3xRIcT-1" vertex="1">
                        <mxGeometry x="1020" y="250" width="30" height="20" as="geometry"/>
                    </mxCell>
                </UserObject>
                <UserObject label="&lt;b&gt;A04&lt;/b&gt;" placeholders="1" name="Variable" id="qWqSGmzBE8zTB4JTfCS3-2">
                    <mxCell style="text;html=1;strokeColor=#d6b656;fillColor=#fff2cc;align=center;verticalAlign=middle;whiteSpace=wrap;overflow=hidden;shadow=1;fontSize=10;" vertex="1" parent="bVHdNsz0KWSQvc3xRIcT-1">
                        <mxGeometry x="1012" y="415" width="40" height="20" as="geometry"/>
                    </mxCell>
                </UserObject>
                <UserObject label="&lt;b&gt;A03&lt;/b&gt;" placeholders="1" name="Variable" id="qWqSGmzBE8zTB4JTfCS3-6">
                    <mxCell style="text;html=1;strokeColor=#d6b656;fillColor=#fff2cc;align=center;verticalAlign=middle;whiteSpace=wrap;overflow=hidden;shadow=1;fontSize=10;" vertex="1" parent="bVHdNsz0KWSQvc3xRIcT-1">
                        <mxGeometry x="1010" y="350" width="40" height="20" as="geometry"/>
                    </mxCell>
                </UserObject>
                <UserObject label="&lt;b&gt;A04&lt;/b&gt;" placeholders="1" name="Variable" id="qWqSGmzBE8zTB4JTfCS3-8">
                    <mxCell style="text;html=1;strokeColor=#d6b656;fillColor=#fff2cc;align=center;verticalAlign=middle;whiteSpace=wrap;overflow=hidden;shadow=1;fontSize=10;" vertex="1" parent="bVHdNsz0KWSQvc3xRIcT-1">
                        <mxGeometry x="660" y="455" width="40" height="20" as="geometry"/>
                    </mxCell>
                </UserObject>
                <UserObject label="&lt;b&gt;A04&lt;/b&gt;" placeholders="1" name="Variable" id="qWqSGmzBE8zTB4JTfCS3-9">
                    <mxCell style="text;html=1;strokeColor=#d6b656;fillColor=#fff2cc;align=center;verticalAlign=middle;whiteSpace=wrap;overflow=hidden;shadow=1;fontSize=10;" vertex="1" parent="bVHdNsz0KWSQvc3xRIcT-1">
                        <mxGeometry x="520" y="467" width="40" height="20" as="geometry"/>
                    </mxCell>
                </UserObject>
                <UserObject label="&lt;b&gt;A03&lt;/b&gt;" placeholders="1" name="Variable" id="qWqSGmzBE8zTB4JTfCS3-10">
                    <mxCell style="text;html=1;strokeColor=#d6b656;fillColor=#fff2cc;align=center;verticalAlign=middle;whiteSpace=wrap;overflow=hidden;shadow=1;fontSize=10;" vertex="1" parent="bVHdNsz0KWSQvc3xRIcT-1">
                        <mxGeometry x="469" y="465" width="40" height="20" as="geometry"/>
                    </mxCell>
                </UserObject>
                <mxCell id="qWqSGmzBE8zTB4JTfCS3-13" value="&amp;nbsp;Security Threat Model - Example eCommerce System" style="text;html=1;resizable=0;autosize=1;align=center;verticalAlign=middle;points=[];fillColor=none;strokeColor=none;rounded=0;fontSize=18;fontStyle=1" vertex="1" parent="bVHdNsz0KWSQvc3xRIcT-1">
                    <mxGeometry x="43" y="25" width="480" height="30" as="geometry"/>
                </mxCell>
            </root>
        </mxGraphModel>
    </diagram>
    <diagram id="IiltKbKD5ddq5IhYbK3Y" name="PFD">
        <mxGraphModel dx="484" dy="437" grid="1" gridSize="10" guides="1" tooltips="1" connect="1" arrows="1" fold="1" page="1" pageScale="1" pageWidth="1169" pageHeight="827" math="0" shadow="0">
            <root>
                <mxCell id="dbUBPG02qW72nxAXLzAD-0"/>
                <mxCell id="dbUBPG02qW72nxAXLzAD-1" parent="dbUBPG02qW72nxAXLzAD-0"/>
                <mxCell id="CzzWQTDkvPvtoRy5d5xq-13" style="edgeStyle=orthogonalEdgeStyle;curved=1;orthogonalLoop=1;jettySize=auto;html=1;exitX=0;exitY=0;exitDx=0;exitDy=0;entryX=0.5;entryY=0;entryDx=0;entryDy=0;fontSize=10;" parent="dbUBPG02qW72nxAXLzAD-1" source="v0QgGEe1ELaFUL6joymP-6" target="CzzWQTDkvPvtoRy5d5xq-10" edge="1">
                    <mxGeometry relative="1" as="geometry">
                        <Array as="points">
                            <mxPoint x="472" y="35"/>
                            <mxPoint x="305" y="35"/>
                        </Array>
                    </mxGeometry>
                </mxCell>
                <mxCell id="_HrcUKyhX5lGfPoHuBbc-1" value="" style="shape=requiredInterface;html=1;verticalLabelPosition=bottom;dashed=1;strokeColor=#FF3333;strokeWidth=2;fillColor=none;fontColor=#FF3333;align=left;rotation=180;shadow=1;" parent="dbUBPG02qW72nxAXLzAD-1" vertex="1">
                    <mxGeometry x="440" y="20" width="20" height="365" as="geometry"/>
                </mxCell>
                <mxCell id="_HrcUKyhX5lGfPoHuBbc-2" value="" style="shape=requiredInterface;html=1;verticalLabelPosition=bottom;dashed=1;strokeColor=#FF3333;strokeWidth=2;fillColor=none;fontColor=#FF3333;align=left;rotation=180;shadow=1;" parent="dbUBPG02qW72nxAXLzAD-1" vertex="1">
                    <mxGeometry x="230" y="20" width="20" height="365" as="geometry"/>
                </mxCell>
                <mxCell id="CzzWQTDkvPvtoRy5d5xq-15" style="edgeStyle=orthogonalEdgeStyle;curved=1;orthogonalLoop=1;jettySize=auto;html=1;exitX=1;exitY=0.25;exitDx=0;exitDy=0;entryX=0.5;entryY=0;entryDx=0;entryDy=0;fontSize=10;" parent="dbUBPG02qW72nxAXLzAD-1" source="v0QgGEe1ELaFUL6joymP-0" target="v0QgGEe1ELaFUL6joymP-2" edge="1">
                    <mxGeometry relative="1" as="geometry"/>
                </mxCell>
                <mxCell id="CzzWQTDkvPvtoRy5d5xq-17" value="HTTPs request" style="text;html=1;resizable=0;points=[];align=center;verticalAlign=middle;labelBackgroundColor=#ffffff;fontSize=10;" parent="CzzWQTDkvPvtoRy5d5xq-15" vertex="1" connectable="0">
                    <mxGeometry x="-0.4809" y="2" relative="1" as="geometry">
                        <mxPoint x="12" y="3.5" as="offset"/>
                    </mxGeometry>
                </mxCell>
                <mxCell id="v0QgGEe1ELaFUL6joymP-0" value="User" style="rounded=0;whiteSpace=wrap;html=1;shadow=1;fontSize=10;" parent="dbUBPG02qW72nxAXLzAD-1" vertex="1">
                    <mxGeometry x="30" y="187.5" width="90" height="35" as="geometry"/>
                </mxCell>
                <mxCell id="CzzWQTDkvPvtoRy5d5xq-11" style="edgeStyle=orthogonalEdgeStyle;curved=1;orthogonalLoop=1;jettySize=auto;html=1;exitX=1;exitY=0.5;exitDx=0;exitDy=0;entryX=0;entryY=0.5;entryDx=0;entryDy=0;fontSize=10;" parent="dbUBPG02qW72nxAXLzAD-1" source="v0QgGEe1ELaFUL6joymP-2" target="v0QgGEe1ELaFUL6joymP-4" edge="1">
                    <mxGeometry relative="1" as="geometry">
                        <Array as="points">
                            <mxPoint x="340" y="330"/>
                            <mxPoint x="472" y="330"/>
                            <mxPoint x="472" y="310"/>
                        </Array>
                    </mxGeometry>
                </mxCell>
                <mxCell id="CzzWQTDkvPvtoRy5d5xq-20" value="Application &lt;br&gt;calls (do)" style="text;html=1;resizable=0;points=[];align=center;verticalAlign=middle;labelBackgroundColor=#ffffff;fontSize=10;" parent="CzzWQTDkvPvtoRy5d5xq-11" vertex="1" connectable="0">
                    <mxGeometry x="-0.7214" y="17" relative="1" as="geometry">
                        <mxPoint x="45" y="27" as="offset"/>
                    </mxGeometry>
                </mxCell>
                <mxCell id="CzzWQTDkvPvtoRy5d5xq-16" style="edgeStyle=orthogonalEdgeStyle;curved=1;orthogonalLoop=1;jettySize=auto;html=1;exitX=0;exitY=0.5;exitDx=0;exitDy=0;entryX=0.75;entryY=1;entryDx=0;entryDy=0;fontSize=10;" parent="dbUBPG02qW72nxAXLzAD-1" source="v0QgGEe1ELaFUL6joymP-2" target="v0QgGEe1ELaFUL6joymP-0" edge="1">
                    <mxGeometry relative="1" as="geometry"/>
                </mxCell>
                <mxCell id="CzzWQTDkvPvtoRy5d5xq-19" value="HTTPs response" style="text;html=1;resizable=0;points=[];align=center;verticalAlign=middle;labelBackgroundColor=#ffffff;fontSize=10;" parent="CzzWQTDkvPvtoRy5d5xq-16" vertex="1" connectable="0">
                    <mxGeometry x="0.1339" y="-12" relative="1" as="geometry">
                        <mxPoint as="offset"/>
                    </mxGeometry>
                </mxCell>
                <mxCell id="v0QgGEe1ELaFUL6joymP-2" value="Web Server" style="ellipse;shape=doubleEllipse;whiteSpace=wrap;html=1;aspect=fixed;shadow=1;fontSize=10;" parent="dbUBPG02qW72nxAXLzAD-1" vertex="1">
                    <mxGeometry x="260" y="220" width="80" height="80" as="geometry"/>
                </mxCell>
                <mxCell id="CzzWQTDkvPvtoRy5d5xq-2" style="edgeStyle=orthogonalEdgeStyle;curved=1;orthogonalLoop=1;jettySize=auto;html=1;fontSize=10;exitX=1;exitY=0.5;exitDx=0;exitDy=0;" parent="dbUBPG02qW72nxAXLzAD-1" source="v0QgGEe1ELaFUL6joymP-4" target="CzzWQTDkvPvtoRy5d5xq-1" edge="1">
                    <mxGeometry relative="1" as="geometry">
                        <Array as="points">
                            <mxPoint x="590" y="250"/>
                            <mxPoint x="830" y="250"/>
                        </Array>
                    </mxGeometry>
                </mxCell>
                <mxCell id="CzzWQTDkvPvtoRy5d5xq-22" value="SQL queries&lt;br&gt;Users&lt;br&gt;Audit Log&lt;br&gt;Inventory&lt;br&gt;Orders" style="text;html=1;resizable=0;points=[];align=center;verticalAlign=middle;labelBackgroundColor=#ffffff;fontSize=10;" parent="CzzWQTDkvPvtoRy5d5xq-2" vertex="1" connectable="0">
                    <mxGeometry x="-0.4194" y="-3" relative="1" as="geometry">
                        <mxPoint x="12" y="27" as="offset"/>
                    </mxGeometry>
                </mxCell>
                <mxCell id="CzzWQTDkvPvtoRy5d5xq-8" style="edgeStyle=orthogonalEdgeStyle;curved=1;orthogonalLoop=1;jettySize=auto;html=1;exitX=0.5;exitY=0;exitDx=0;exitDy=0;entryX=0.5;entryY=1;entryDx=0;entryDy=0;fontSize=10;" parent="dbUBPG02qW72nxAXLzAD-1" source="v0QgGEe1ELaFUL6joymP-4" target="v0QgGEe1ELaFUL6joymP-6" edge="1">
                    <mxGeometry relative="1" as="geometry">
                        <Array as="points">
                            <mxPoint x="550" y="250"/>
                            <mxPoint x="510" y="250"/>
                            <mxPoint x="510" y="170"/>
                            <mxPoint x="550" y="170"/>
                        </Array>
                    </mxGeometry>
                </mxCell>
                <mxCell id="_HrcUKyhX5lGfPoHuBbc-8" value="Application&lt;br&gt;call (do)" style="text;html=1;resizable=0;points=[];align=center;verticalAlign=middle;labelBackgroundColor=#ffffff;fontSize=10;" parent="CzzWQTDkvPvtoRy5d5xq-8" vertex="1" connectable="0">
                    <mxGeometry x="0.4037" y="-8" relative="1" as="geometry">
                        <mxPoint x="-10" y="32" as="offset"/>
                    </mxGeometry>
                </mxCell>
                <mxCell id="_HrcUKyhX5lGfPoHuBbc-7" value="HTTPs&lt;br&gt;XML" style="text;html=1;resizable=0;points=[];align=center;verticalAlign=middle;labelBackgroundColor=#ffffff;fontSize=10;" parent="CzzWQTDkvPvtoRy5d5xq-8" vertex="1" connectable="0">
                    <mxGeometry x="0.2569" y="-2" relative="1" as="geometry">
                        <mxPoint x="-132" y="-151" as="offset"/>
                    </mxGeometry>
                </mxCell>
                <mxCell id="CzzWQTDkvPvtoRy5d5xq-12" style="edgeStyle=orthogonalEdgeStyle;curved=1;orthogonalLoop=1;jettySize=auto;html=1;fontSize=10;exitX=0;exitY=0.5;exitDx=0;exitDy=0;entryX=1;entryY=0.5;entryDx=0;entryDy=0;" parent="dbUBPG02qW72nxAXLzAD-1" source="v0QgGEe1ELaFUL6joymP-4" target="v0QgGEe1ELaFUL6joymP-2" edge="1">
                    <mxGeometry relative="1" as="geometry">
                        <Array as="points">
                            <mxPoint x="510" y="260"/>
                        </Array>
                    </mxGeometry>
                </mxCell>
                <mxCell id="CzzWQTDkvPvtoRy5d5xq-21" value="Application&lt;br&gt;response&amp;nbsp;" style="text;html=1;resizable=0;points=[];align=center;verticalAlign=middle;labelBackgroundColor=#ffffff;fontSize=10;" parent="CzzWQTDkvPvtoRy5d5xq-12" vertex="1" connectable="0">
                    <mxGeometry x="0.5435" y="3" relative="1" as="geometry">
                        <mxPoint x="10" y="-3" as="offset"/>
                    </mxGeometry>
                </mxCell>
                <mxCell id="v0QgGEe1ELaFUL6joymP-4" value="Order Processor" style="ellipse;shape=doubleEllipse;whiteSpace=wrap;html=1;aspect=fixed;shadow=1;fontSize=10;" parent="dbUBPG02qW72nxAXLzAD-1" vertex="1">
                    <mxGeometry x="510" y="270" width="80" height="80" as="geometry"/>
                </mxCell>
                <mxCell id="CzzWQTDkvPvtoRy5d5xq-9" style="edgeStyle=orthogonalEdgeStyle;curved=1;orthogonalLoop=1;jettySize=auto;html=1;exitX=0.5;exitY=1;exitDx=0;exitDy=0;fontSize=10;entryX=0.5;entryY=0;entryDx=0;entryDy=0;" parent="dbUBPG02qW72nxAXLzAD-1" source="v0QgGEe1ELaFUL6joymP-6" target="v0QgGEe1ELaFUL6joymP-4" edge="1">
                    <mxGeometry relative="1" as="geometry">
                        <Array as="points">
                            <mxPoint x="550" y="170"/>
                            <mxPoint x="590" y="170"/>
                            <mxPoint x="590" y="250"/>
                            <mxPoint x="550" y="250"/>
                        </Array>
                    </mxGeometry>
                </mxCell>
                <mxCell id="_HrcUKyhX5lGfPoHuBbc-9" value="Application&lt;br&gt;response" style="text;html=1;resizable=0;points=[];align=center;verticalAlign=middle;labelBackgroundColor=#ffffff;fontSize=10;" parent="CzzWQTDkvPvtoRy5d5xq-9" vertex="1" connectable="0">
                    <mxGeometry x="0.0746" y="-1" relative="1" as="geometry">
                        <mxPoint x="1" y="-6.5" as="offset"/>
                    </mxGeometry>
                </mxCell>
                <mxCell id="_HrcUKyhX5lGfPoHuBbc-0" style="edgeStyle=orthogonalEdgeStyle;curved=1;orthogonalLoop=1;jettySize=auto;html=1;exitX=1;exitY=0.5;exitDx=0;exitDy=0;entryX=0.5;entryY=0;entryDx=0;entryDy=0;fontSize=10;" parent="dbUBPG02qW72nxAXLzAD-1" source="v0QgGEe1ELaFUL6joymP-6" target="CzzWQTDkvPvtoRy5d5xq-1" edge="1">
                    <mxGeometry relative="1" as="geometry">
                        <Array as="points">
                            <mxPoint x="830" y="110"/>
                        </Array>
                    </mxGeometry>
                </mxCell>
                <mxCell id="_HrcUKyhX5lGfPoHuBbc-10" value="SQL queries&lt;br&gt;Payments&lt;br&gt;Audit Log" style="text;html=1;resizable=0;points=[];align=center;verticalAlign=middle;labelBackgroundColor=#ffffff;fontSize=10;" parent="_HrcUKyhX5lGfPoHuBbc-0" vertex="1" connectable="0">
                    <mxGeometry x="-0.4726" y="8" relative="1" as="geometry">
                        <mxPoint x="-50" y="18" as="offset"/>
                    </mxGeometry>
                </mxCell>
                <mxCell id="v0QgGEe1ELaFUL6joymP-6" value="Payments API" style="ellipse;shape=doubleEllipse;whiteSpace=wrap;html=1;aspect=fixed;shadow=1;fontSize=10;" parent="dbUBPG02qW72nxAXLzAD-1" vertex="1">
                    <mxGeometry x="510" y="70" width="80" height="80" as="geometry"/>
                </mxCell>
                <mxCell id="v0QgGEe1ELaFUL6joymP-7" value="" style="shape=requiredInterface;html=1;verticalLabelPosition=bottom;dashed=1;strokeColor=#FF3333;strokeWidth=2;fillColor=none;fontColor=#FF3333;align=left;rotation=180;shadow=1;" parent="dbUBPG02qW72nxAXLzAD-1" vertex="1">
                    <mxGeometry x="700" y="20" width="20" height="365" as="geometry"/>
                </mxCell>
                <mxCell id="CzzWQTDkvPvtoRy5d5xq-3" style="edgeStyle=orthogonalEdgeStyle;curved=1;orthogonalLoop=1;jettySize=auto;html=1;fontSize=10;entryX=1;entryY=1;entryDx=0;entryDy=0;" parent="dbUBPG02qW72nxAXLzAD-1" source="CzzWQTDkvPvtoRy5d5xq-1" target="v0QgGEe1ELaFUL6joymP-4" edge="1">
                    <mxGeometry relative="1" as="geometry">
                        <Array as="points">
                            <mxPoint x="780" y="360"/>
                            <mxPoint x="600" y="360"/>
                            <mxPoint x="600" y="338"/>
                        </Array>
                    </mxGeometry>
                </mxCell>
                <mxCell id="CzzWQTDkvPvtoRy5d5xq-23" value="User data&lt;br&gt;Auth data&lt;br&gt;Inventory data" style="text;html=1;resizable=0;points=[];align=center;verticalAlign=middle;labelBackgroundColor=#ffffff;fontSize=10;" parent="CzzWQTDkvPvtoRy5d5xq-3" vertex="1" connectable="0">
                    <mxGeometry x="0.4767" y="-5" relative="1" as="geometry">
                        <mxPoint x="34.5" y="5" as="offset"/>
                    </mxGeometry>
                </mxCell>
                <mxCell id="CzzWQTDkvPvtoRy5d5xq-1" value="Data Stores" style="shape=partialRectangle;whiteSpace=wrap;html=1;left=0;right=0;fillColor=none;shadow=1;fontSize=10;" parent="dbUBPG02qW72nxAXLzAD-1" vertex="1">
                    <mxGeometry x="770" y="285" width="120" height="30" as="geometry"/>
                </mxCell>
                <mxCell id="CzzWQTDkvPvtoRy5d5xq-14" style="edgeStyle=orthogonalEdgeStyle;curved=1;orthogonalLoop=1;jettySize=auto;html=1;exitX=0.5;exitY=1;exitDx=0;exitDy=0;entryX=0;entryY=0;entryDx=0;entryDy=0;fontSize=10;" parent="dbUBPG02qW72nxAXLzAD-1" source="CzzWQTDkvPvtoRy5d5xq-10" target="v0QgGEe1ELaFUL6joymP-6" edge="1">
                    <mxGeometry relative="1" as="geometry"/>
                </mxCell>
                <mxCell id="2FBbXlBaZP0yimbZxuE2-0" value="HTTPs" style="text;html=1;resizable=0;points=[];align=center;verticalAlign=middle;labelBackgroundColor=#ffffff;fontSize=10;" parent="CzzWQTDkvPvtoRy5d5xq-14" vertex="1" connectable="0">
                    <mxGeometry x="-0.3283" y="3" relative="1" as="geometry">
                        <mxPoint as="offset"/>
                    </mxGeometry>
                </mxCell>
                <mxCell id="CzzWQTDkvPvtoRy5d5xq-10" value="Payment Partner" style="rounded=0;whiteSpace=wrap;html=1;shadow=1;fontSize=10;" parent="dbUBPG02qW72nxAXLzAD-1" vertex="1">
                    <mxGeometry x="260" y="55" width="90" height="35" as="geometry"/>
                </mxCell>
                <mxCell id="_HrcUKyhX5lGfPoHuBbc-3" value="&lt;span style=&quot;color: rgb(255 , 51 , 51) ; font-size: 12px ; text-align: left ; white-space: nowrap&quot;&gt;DMZ - user/web server boundary&lt;/span&gt;" style="text;html=1;strokeColor=none;fillColor=none;align=center;verticalAlign=middle;whiteSpace=wrap;rounded=0;shadow=0;fontSize=10;rotation=-90;labelBackgroundColor=#ffffff;" parent="dbUBPG02qW72nxAXLzAD-1" vertex="1">
                    <mxGeometry x="140" y="187.5" width="210" height="20" as="geometry"/>
                </mxCell>
                <mxCell id="_HrcUKyhX5lGfPoHuBbc-5" value="&lt;div style=&quot;text-align: center&quot;&gt;&lt;span style=&quot;color: rgb(255 , 51 , 51) ; font-size: 12px ; text-align: left ; white-space: nowrap&quot;&gt;Protected data&amp;nbsp;&lt;/span&gt;&lt;font color=&quot;#ff3333&quot;&gt;&lt;span style=&quot;font-size: 12px ; white-space: nowrap&quot;&gt;centre -&amp;nbsp;&lt;/span&gt;&lt;span style=&quot;font-size: 12px ; white-space: nowrap&quot;&gt;web server/application boundary&lt;/span&gt;&lt;/font&gt;&lt;/div&gt;" style="text;html=1;strokeColor=none;fillColor=none;align=center;verticalAlign=middle;whiteSpace=wrap;rounded=0;shadow=0;fontSize=10;rotation=-90;labelBackgroundColor=#ffffff;" parent="dbUBPG02qW72nxAXLzAD-1" vertex="1">
                    <mxGeometry x="350" y="187.5" width="210" height="20" as="geometry"/>
                </mxCell>
                <mxCell id="_HrcUKyhX5lGfPoHuBbc-6" value="&lt;div style=&quot;text-align: center&quot;&gt;&lt;div style=&quot;text-align: left&quot;&gt;&lt;font color=&quot;#ff3333&quot;&gt;&lt;span style=&quot;font-size: 12px ; white-space: nowrap&quot;&gt;Restricted network - app/database boundary&lt;/span&gt;&lt;/font&gt;&lt;/div&gt;&lt;/div&gt;" style="text;html=1;strokeColor=none;fillColor=none;align=center;verticalAlign=middle;whiteSpace=wrap;rounded=0;shadow=0;fontSize=10;rotation=-90;labelBackgroundColor=#ffffff;" parent="dbUBPG02qW72nxAXLzAD-1" vertex="1">
                    <mxGeometry x="610" y="182.5" width="210" height="20" as="geometry"/>
                </mxCell>
            </root>
        </mxGraphModel>
    </diagram>
    <diagram id="DFwIx7VVaJuNNy6AmM6M" name="Attack Tree">
        <mxGraphModel dx="691" dy="624" grid="1" gridSize="10" guides="1" tooltips="1" connect="1" arrows="1" fold="1" page="1" pageScale="1" pageWidth="827" pageHeight="1169" math="0" shadow="0">
            <root>
                <mxCell id="0"/>
                <mxCell id="1" parent="0"/>
                <mxCell id="0dLORehoDUG8drkRdSyY-1" value="Full Access to &lt;br&gt;User's WiFi" style="shape=xor;whiteSpace=wrap;html=1;fillColor=#d5e8d4;strokeColor=#82b366;direction=north;" parent="1" vertex="1">
                    <mxGeometry x="370" y="310" width="120" height="80" as="geometry"/>
                </mxCell>
                <mxCell id="0dLORehoDUG8drkRdSyY-2" value="Access Secured Network" style="shape=xor;whiteSpace=wrap;html=1;fillColor=#d5e8d4;strokeColor=#82b366;direction=north;" parent="1" vertex="1">
                    <mxGeometry x="500" y="450" width="120" height="80" as="geometry"/>
                </mxCell>
                <mxCell id="0dLORehoDUG8drkRdSyY-3" value="" style="edgeStyle=orthogonalEdgeStyle;rounded=0;orthogonalLoop=1;jettySize=auto;html=1;exitX=0.25;exitY=0.5;exitDx=0;exitDy=0;exitPerimeter=0;entryX=1;entryY=0.5;entryDx=0;entryDy=0;entryPerimeter=0;" parent="1" source="0dLORehoDUG8drkRdSyY-1" target="0dLORehoDUG8drkRdSyY-2" edge="1">
                    <mxGeometry relative="1" as="geometry">
                        <Array as="points">
                            <mxPoint x="430" y="420"/>
                            <mxPoint x="560" y="420"/>
                        </Array>
                    </mxGeometry>
                </mxCell>
                <mxCell id="0dLORehoDUG8drkRdSyY-4" value="Access Unsecured Network" style="shape=xor;whiteSpace=wrap;html=1;fillColor=#d5e8d4;strokeColor=#82b366;direction=north;" parent="1" vertex="1">
                    <mxGeometry x="180" y="450" width="120" height="80" as="geometry"/>
                </mxCell>
                <mxCell id="0dLORehoDUG8drkRdSyY-5" value="" style="edgeStyle=orthogonalEdgeStyle;rounded=0;orthogonalLoop=1;jettySize=auto;html=1;exitX=0.25;exitY=0.5;exitDx=0;exitDy=0;exitPerimeter=0;entryX=1;entryY=0.5;entryDx=0;entryDy=0;entryPerimeter=0;" parent="1" source="0dLORehoDUG8drkRdSyY-1" target="0dLORehoDUG8drkRdSyY-4" edge="1">
                    <mxGeometry relative="1" as="geometry">
                        <Array as="points">
                            <mxPoint x="430" y="420"/>
                            <mxPoint x="240" y="420"/>
                        </Array>
                    </mxGeometry>
                </mxCell>
                <mxCell id="0dLORehoDUG8drkRdSyY-8" value="App" style="rounded=0;whiteSpace=wrap;html=1;fillColor=#f5f5f5;strokeColor=#666666;" parent="1" vertex="1">
                    <mxGeometry x="500" y="580" width="120" height="80" as="geometry"/>
                </mxCell>
                <mxCell id="0dLORehoDUG8drkRdSyY-9" value="" style="edgeStyle=orthogonalEdgeStyle;rounded=0;orthogonalLoop=1;jettySize=auto;html=1;exitX=0.25;exitY=0.5;exitDx=0;exitDy=0;exitPerimeter=0;" parent="1" source="0dLORehoDUG8drkRdSyY-2" target="0dLORehoDUG8drkRdSyY-8" edge="1">
                    <mxGeometry relative="1" as="geometry"/>
                </mxCell>
                <mxCell id="0dLORehoDUG8drkRdSyY-10" value="Phishing" style="rounded=0;whiteSpace=wrap;html=1;fillColor=#f5f5f5;strokeColor=#666666;" parent="1" vertex="1">
                    <mxGeometry x="630" y="580" width="120" height="80" as="geometry"/>
                </mxCell>
                <mxCell id="0dLORehoDUG8drkRdSyY-11" value="" style="edgeStyle=orthogonalEdgeStyle;rounded=0;orthogonalLoop=1;jettySize=auto;html=1;exitX=0.25;exitY=0.5;exitDx=0;exitDy=0;exitPerimeter=0;" parent="1" source="0dLORehoDUG8drkRdSyY-2" target="0dLORehoDUG8drkRdSyY-10" edge="1">
                    <mxGeometry relative="1" as="geometry">
                        <Array as="points">
                            <mxPoint x="560" y="540"/>
                            <mxPoint x="690" y="540"/>
                        </Array>
                    </mxGeometry>
                </mxCell>
                <mxCell id="0dLORehoDUG8drkRdSyY-12" value="Man in the Middle" style="rounded=0;whiteSpace=wrap;html=1;fillColor=#f5f5f5;strokeColor=#666666;" parent="1" vertex="1">
                    <mxGeometry x="240" y="580" width="120" height="80" as="geometry"/>
                </mxCell>
                <mxCell id="0dLORehoDUG8drkRdSyY-13" value="" style="edgeStyle=orthogonalEdgeStyle;rounded=0;orthogonalLoop=1;jettySize=auto;html=1;exitX=0.25;exitY=0.5;exitDx=0;exitDy=0;exitPerimeter=0;" parent="1" source="0dLORehoDUG8drkRdSyY-4" target="0dLORehoDUG8drkRdSyY-12" edge="1">
                    <mxGeometry relative="1" as="geometry">
                        <Array as="points">
                            <mxPoint x="240" y="540"/>
                            <mxPoint x="300" y="540"/>
                        </Array>
                    </mxGeometry>
                </mxCell>
                <mxCell id="0dLORehoDUG8drkRdSyY-14" value="Packet Sniffing" style="rounded=0;whiteSpace=wrap;html=1;fillColor=#f5f5f5;strokeColor=#666666;" parent="1" vertex="1">
                    <mxGeometry x="110" y="580" width="120" height="80" as="geometry"/>
                </mxCell>
                <mxCell id="0dLORehoDUG8drkRdSyY-15" value="" style="edgeStyle=orthogonalEdgeStyle;rounded=0;orthogonalLoop=1;jettySize=auto;html=1;exitX=0.25;exitY=0.5;exitDx=0;exitDy=0;exitPerimeter=0;" parent="1" source="0dLORehoDUG8drkRdSyY-4" target="0dLORehoDUG8drkRdSyY-14" edge="1">
                    <mxGeometry relative="1" as="geometry">
                        <Array as="points">
                            <mxPoint x="240" y="540"/>
                            <mxPoint x="170" y="540"/>
                        </Array>
                    </mxGeometry>
                </mxCell>
                <mxCell id="0dLORehoDUG8drkRdSyY-16" value="Learn Password" style="shape=xor;whiteSpace=wrap;html=1;fillColor=#d5e8d4;strokeColor=#82b366;direction=north;" parent="1" vertex="1">
                    <mxGeometry x="370" y="580" width="120" height="80" as="geometry"/>
                </mxCell>
                <mxCell id="0dLORehoDUG8drkRdSyY-17" value="" style="edgeStyle=orthogonalEdgeStyle;rounded=0;orthogonalLoop=1;jettySize=auto;html=1;exitX=0.25;exitY=0.5;exitDx=0;exitDy=0;exitPerimeter=0;" parent="1" source="0dLORehoDUG8drkRdSyY-2" target="0dLORehoDUG8drkRdSyY-16" edge="1">
                    <mxGeometry relative="1" as="geometry">
                        <Array as="points">
                            <mxPoint x="560" y="540"/>
                            <mxPoint x="430" y="540"/>
                        </Array>
                    </mxGeometry>
                </mxCell>
                <mxCell id="0dLORehoDUG8drkRdSyY-18" value="Written Password" style="rounded=0;whiteSpace=wrap;html=1;fillColor=#f5f5f5;strokeColor=#666666;" parent="1" vertex="1">
                    <mxGeometry x="240" y="720" width="120" height="80" as="geometry"/>
                </mxCell>
                <mxCell id="0dLORehoDUG8drkRdSyY-19" value="" style="edgeStyle=orthogonalEdgeStyle;rounded=0;orthogonalLoop=1;jettySize=auto;html=1;exitX=0.25;exitY=0.5;exitDx=0;exitDy=0;exitPerimeter=0;" parent="1" source="0dLORehoDUG8drkRdSyY-16" target="0dLORehoDUG8drkRdSyY-18" edge="1">
                    <mxGeometry relative="1" as="geometry">
                        <Array as="points">
                            <mxPoint x="430" y="690"/>
                            <mxPoint x="300" y="690"/>
                        </Array>
                    </mxGeometry>
                </mxCell>
                <mxCell id="0dLORehoDUG8drkRdSyY-22" value="Get Password From User" style="shape=xor;whiteSpace=wrap;html=1;fillColor=#d5e8d4;strokeColor=#82b366;direction=north;" parent="1" vertex="1">
                    <mxGeometry x="370" y="720" width="120" height="80" as="geometry"/>
                </mxCell>
                <mxCell id="0dLORehoDUG8drkRdSyY-23" value="" style="edgeStyle=orthogonalEdgeStyle;rounded=0;orthogonalLoop=1;jettySize=auto;html=1;exitX=0.25;exitY=0.5;exitDx=0;exitDy=0;exitPerimeter=0;" parent="1" source="0dLORehoDUG8drkRdSyY-16" target="0dLORehoDUG8drkRdSyY-22" edge="1">
                    <mxGeometry relative="1" as="geometry"/>
                </mxCell>
                <mxCell id="0dLORehoDUG8drkRdSyY-24" value="Threaten" style="rounded=0;whiteSpace=wrap;html=1;fillColor=#f5f5f5;strokeColor=#666666;" parent="1" vertex="1">
                    <mxGeometry x="370" y="860" width="120" height="80" as="geometry"/>
                </mxCell>
                <mxCell id="0dLORehoDUG8drkRdSyY-25" value="" style="edgeStyle=orthogonalEdgeStyle;rounded=0;orthogonalLoop=1;jettySize=auto;html=1;exitX=0.25;exitY=0.5;exitDx=0;exitDy=0;exitPerimeter=0;" parent="1" source="0dLORehoDUG8drkRdSyY-22" target="0dLORehoDUG8drkRdSyY-24" edge="1">
                    <mxGeometry relative="1" as="geometry"/>
                </mxCell>
                <mxCell id="0dLORehoDUG8drkRdSyY-26" value="Bribe" style="rounded=0;whiteSpace=wrap;html=1;fillColor=#f5f5f5;strokeColor=#666666;" parent="1" vertex="1">
                    <mxGeometry x="240" y="860" width="120" height="80" as="geometry"/>
                </mxCell>
                <mxCell id="0dLORehoDUG8drkRdSyY-27" value="" style="edgeStyle=orthogonalEdgeStyle;rounded=0;orthogonalLoop=1;jettySize=auto;html=1;exitX=0.25;exitY=0.5;exitDx=0;exitDy=0;exitPerimeter=0;" parent="1" source="0dLORehoDUG8drkRdSyY-22" target="0dLORehoDUG8drkRdSyY-26" edge="1">
                    <mxGeometry relative="1" as="geometry">
                        <Array as="points">
                            <mxPoint x="430" y="820"/>
                            <mxPoint x="300" y="820"/>
                        </Array>
                    </mxGeometry>
                </mxCell>
                <mxCell id="0dLORehoDUG8drkRdSyY-28" value="Blackmail" style="rounded=0;whiteSpace=wrap;html=1;fillColor=#f5f5f5;strokeColor=#666666;" parent="1" vertex="1">
                    <mxGeometry x="500" y="860" width="120" height="80" as="geometry"/>
                </mxCell>
                <mxCell id="0dLORehoDUG8drkRdSyY-29" value="" style="edgeStyle=orthogonalEdgeStyle;rounded=0;orthogonalLoop=1;jettySize=auto;html=1;exitX=0.25;exitY=0.5;exitDx=0;exitDy=0;exitPerimeter=0;" parent="1" source="0dLORehoDUG8drkRdSyY-22" target="0dLORehoDUG8drkRdSyY-28" edge="1">
                    <mxGeometry relative="1" as="geometry">
                        <Array as="points">
                            <mxPoint x="430" y="820"/>
                            <mxPoint x="560" y="820"/>
                        </Array>
                    </mxGeometry>
                </mxCell>
            </root>
        </mxGraphModel>
    </diagram>
</mxfile>